<svg width="16" height="16" viewBox="0 0 16 16" fill="none" xmlns="http://www.w3.org/2000/svg">
<path d="M5.87329 1.33333L3.45996 3.75333" stroke="#292D32" stroke-width="1.5" stroke-miterlimit="10" stroke-linecap="round" stroke-linejoin="round"/>
<path d="M10.1267 1.33333L12.54 3.75333" stroke="#292D32" stroke-width="1.5" stroke-miterlimit="10" stroke-linecap="round" stroke-linejoin="round"/>
<path d="M1.33325 5.23333C1.33325 4 1.99325 3.9 2.81325 3.9H13.1866C14.0066 3.9 14.6666 4 14.6666 5.23333C14.6666 6.66667 14.0066 6.56667 13.1866 6.56667H2.81325C1.99325 6.56667 1.33325 6.66667 1.33325 5.23333Z" stroke="#292D32" stroke-width="1.5"/>
<path d="M6.50659 9.33333V11.7" stroke="#292D32" stroke-width="1.5" stroke-linecap="round"/>
<path d="M9.57324 9.33333V11.7" stroke="#292D32" stroke-width="1.5" stroke-linecap="round"/>
<path d="M2.33325 6.66667L3.27325 12.4267C3.48659 13.72 3.99992 14.6667 5.90659 14.6667H9.92659C11.9999 14.6667 12.3066 13.76 12.5466 12.5067L13.6666 6.66667" stroke="#292D32" stroke-width="1.5" stroke-linecap="round"/>
</svg>
