<svg width="20" height="21" viewBox="0 0 20 21" fill="none" xmlns="http://www.w3.org/2000/svg">
<path d="M2.5 6.33331H5" stroke="#141B34" stroke-width="1.5" stroke-linecap="round" stroke-linejoin="round"/>
<path d="M2.5 14.6667H7.5" stroke="#141B34" stroke-width="1.5" stroke-linecap="round" stroke-linejoin="round"/>
<path d="M15 14.6667H17.5" stroke="#141B34" stroke-width="1.5" stroke-linecap="round" stroke-linejoin="round"/>
<path d="M12.5 6.33331H17.5" stroke="#141B34" stroke-width="1.5" stroke-linecap="round" stroke-linejoin="round"/>
<path d="M5 6.33331C5 5.55675 5 5.16846 5.12687 4.86217C5.29602 4.4538 5.62048 4.12934 6.02886 3.96018C6.33515 3.83331 6.72343 3.83331 7.5 3.83331C8.27657 3.83331 8.66483 3.83331 8.97117 3.96018C9.3795 4.12934 9.704 4.4538 9.87317 4.86217C10 5.16846 10 5.55675 10 6.33331C10 7.10988 10 7.49816 9.87317 7.80445C9.704 8.21283 9.3795 8.53729 8.97117 8.70645C8.66483 8.83331 8.27657 8.83331 7.5 8.83331C6.72343 8.83331 6.33515 8.83331 6.02886 8.70645C5.62048 8.53729 5.29602 8.21283 5.12687 7.80445C5 7.49816 5 7.10988 5 6.33331Z" stroke="#141B34" stroke-width="1.5"/>
<path d="M10 14.6667C10 13.8901 10 13.5019 10.1268 13.1955C10.296 12.7872 10.6205 12.4627 11.0288 12.2935C11.3352 12.1667 11.7234 12.1667 12.5 12.1667C13.2766 12.1667 13.6648 12.1667 13.9712 12.2935C14.3795 12.4627 14.704 12.7872 14.8732 13.1955C15 13.5019 15 13.8901 15 14.6667C15 15.4433 15 15.8315 14.8732 16.1379C14.704 16.5462 14.3795 16.8707 13.9712 17.0399C13.6648 17.1667 13.2766 17.1667 12.5 17.1667C11.7234 17.1667 11.3352 17.1667 11.0288 17.0399C10.6205 16.8707 10.296 16.5462 10.1268 16.1379C10 15.8315 10 15.4433 10 14.6667Z" stroke="#141B34" stroke-width="1.5"/>
</svg>
