<svg width="24" height="24" viewBox="0 0 24 24" fill="none" xmlns="http://www.w3.org/2000/svg">
<path d="M20.86 8.37L13.93 2.83C12.86 1.97 11.13 1.97 10.07 2.82L3.14002 8.37C2.36002 8.99 1.86002 10.3 2.03002 11.28L3.36002 19.24C3.60002 20.66 4.96002 21.81 6.40002 21.81H17.6C19.03 21.81 20.4 20.65 20.64 19.24L21.97 11.28C22.13 10.3 21.63 8.99 20.86 8.37ZM12 15.5C10.62 15.5 9.50002 14.38 9.50002 13C9.50002 11.62 10.62 10.5 12 10.5C13.38 10.5 14.5 11.62 14.5 13C14.5 14.38 13.38 15.5 12 15.5Z" fill="white"/>
</svg>
