<svg width="20" height="21" viewBox="0 0 20 21" fill="none" xmlns="http://www.w3.org/2000/svg">
<path d="M9.16663 17.7917C4.68329 17.7917 1.04163 14.15 1.04163 9.66669C1.04163 5.18335 4.68329 1.54169 9.16663 1.54169C13.65 1.54169 17.2916 5.18335 17.2916 9.66669C17.2916 14.15 13.65 17.7917 9.16663 17.7917ZM9.16663 2.79169C5.37496 2.79169 2.29163 5.87502 2.29163 9.66669C2.29163 13.4584 5.37496 16.5417 9.16663 16.5417C12.9583 16.5417 16.0416 13.4584 16.0416 9.66669C16.0416 5.87502 12.9583 2.79169 9.16663 2.79169Z" fill="#292D32"/>
<path d="M16.8 19.4917C16.7333 19.4917 16.6666 19.4833 16.6083 19.475C16.2166 19.425 15.5083 19.1583 15.1083 17.9667C14.9 17.3417 14.975 16.7167 15.3166 16.2417C15.6583 15.7667 16.2333 15.5 16.8916 15.5C17.7416 15.5 18.4083 15.825 18.7083 16.4C19.0083 16.975 18.925 17.7083 18.45 18.4167C17.8583 19.3083 17.2166 19.4917 16.8 19.4917ZM16.3 17.575C16.4416 18.0083 16.6416 18.225 16.775 18.2417C16.9083 18.2583 17.1583 18.1 17.4166 17.725C17.6583 17.3667 17.675 17.1083 17.6166 16.9917C17.5583 16.875 17.325 16.75 16.8916 16.75C16.6333 16.75 16.4416 16.8333 16.3333 16.975C16.2333 17.1167 16.2166 17.3333 16.3 17.575Z" fill="#292D32"/>
</svg>
