<svg width="16" height="16" viewBox="0 0 16 16" fill="none" xmlns="http://www.w3.org/2000/svg">
<path d="M6 8.66667C6 8.66667 6.66667 8.66667 7.33333 10C7.33333 10 9.451 6.66667 11.3333 6" stroke="#232220" stroke-width="1.5" stroke-linecap="round" stroke-linejoin="round"/>
<path d="M14 7.45554V5.5202C14 4.42686 14 3.88019 13.7306 3.52353C13.4612 3.16686 12.8521 2.99371 11.6338 2.6474C10.8015 2.4108 10.0677 2.12576 9.48153 1.86553C8.68227 1.51074 8.28267 1.33334 8 1.33334C7.71733 1.33334 7.31773 1.51074 6.51847 1.86553C5.93226 2.12576 5.19856 2.4108 4.36622 2.6474C3.14795 2.99371 2.53881 3.16686 2.26941 3.52353C2 3.88019 2 4.42686 2 5.5202V7.45554C2 11.2057 5.37518 13.4557 7.06267 14.3463C7.4674 14.5599 7.66973 14.6667 8 14.6667C8.33027 14.6667 8.5326 14.5599 8.93733 14.3463C10.6248 13.4557 14 11.2057 14 7.45554Z" stroke="#232220" stroke-width="1.5" stroke-linecap="round"/>
</svg>
