<svg width="16" height="16" viewBox="0 0 16 16" fill="none" xmlns="http://www.w3.org/2000/svg">
<path d="M10.6667 9.33334C10.6667 9.8856 11.1145 10.3333 11.6667 10.3333C12.219 10.3333 12.6667 9.8856 12.6667 9.33334C12.6667 8.78107 12.219 8.33334 11.6667 8.33334C11.1145 8.33334 10.6667 8.78107 10.6667 9.33334Z" stroke="#FB9E11" stroke-width="1.5"/>
<path d="M6.66658 4.66667H10.6666C12.5522 4.66667 13.495 4.66667 14.0808 5.25245C14.6666 5.83824 14.6666 6.78107 14.6666 8.66667V10C14.6666 11.8856 14.6666 12.8284 14.0808 13.4142C13.495 14 12.5522 14 10.6666 14H6.66658C4.15243 14 2.89535 14 2.1143 13.2189C1.33325 12.4379 1.33325 11.1808 1.33325 8.66667V7.33333C1.33325 4.81917 1.33325 3.5621 2.1143 2.78105C2.89535 2 4.15243 2 6.66658 2H9.33325C9.95325 2 10.2633 2 10.5176 2.06815C11.2077 2.25308 11.7469 2.79218 11.9318 3.48236C11.9999 3.73669 11.9999 4.04669 11.9999 4.66667" stroke="#FB9E11" stroke-width="1.5" stroke-linecap="round"/>
</svg>
